<?xml version="1.0" standalone="no"?>
<!DOCTYPE svg PUBLIC "-//W3C//DTD SVG 20010904//EN"
 "http://www.w3.org/TR/2001/REC-SVG-20010904/DTD/svg10.dtd">
<svg version="1.0" xmlns="http://www.w3.org/2000/svg"
 width="348.000000pt" height="402.000000pt" viewBox="0 0 348.000000 402.000000"
 preserveAspectRatio="xMidYMid meet">

<g transform="translate(0.000000,402.000000) scale(0.100000,-0.100000)"
fill="#000000" stroke="none">
<path d="M868 3507 l-868 -502 0 -1000 0 -1000 870 -502 870 -503 870 503 870
502 0 1000 0 1000 -866 500 c-476 275 -868 501 -872 502 -4 1 -397 -224 -874
-500z m1697 -86 l810 -468 0 -948 0 -949 -810 -467 c-445 -258 -817 -468 -825
-468 -8 0 -379 210 -825 468 l-810 468 0 948 0 948 810 468 c446 258 817 468
825 468 8 0 380 -210 825 -468z"/>
</g>
</svg>
